<svg width="32" height="32" fill="none" xmlns="http://www.w3.org/2000/svg"><g clip-path="url(#a)"><path d="M16 32c8.837 0 16-7.163 16-16S24.837 0 16 0 0 7.163 0 16s7.163 16 16 16z" fill="#1C1514"/><path d="M15.47 19.53a.75.75 0 001.06 0l4.773-4.773a.75.75 0 00-1.06-1.06L16 17.939l-4.243-4.242a.75.75 0 00-1.06 1.06l4.773 4.773zM15.25 7v12h1.5V7h-1.5z" fill="#FAFAFA"/><path d="M21.25 23.75h-10.5" stroke="#FAFAFA" stroke-width="1.5" stroke-linecap="round" stroke-linejoin="round"/></g><defs><clipPath id="a"><path fill="#fff" d="M0 0H32V32H0z"/></clipPath></defs></svg>