<svg width="306" height="360" viewBox="0 0 306 360" fill="none" xmlns="http://www.w3.org/2000/svg">
<path d="M0 22H228.5" stroke="white" stroke-width="20"/>
<path d="M0 57.5H228.5" stroke="white" stroke-width="20"/>
<path d="M284 0L284 228.5" stroke="white" stroke-width="20"/>
<path d="M248.5 0L248.5 228.5" stroke="white" stroke-width="20"/>
<path d="M306 284L77.5 284" stroke="white" stroke-width="20"/>
<path d="M306 248.5L77.5 248.5" stroke="white" stroke-width="20"/>
<path d="M22 306L22 77.5" stroke="white" stroke-width="20"/>
<path d="M57.5 306L57.5 77.5" stroke="white" stroke-width="20"/>
<path d="M211 152.5C211 184.809 184.809 211 152.5 211C120.191 211 94 184.809 94 152.5C94 120.191 120.191 94 152.5 94C184.809 94 211 120.191 211 152.5Z" stroke="white" stroke-width="20"/>
<path d="M128.483 115.927C128.483 115.157 129.316 114.676 129.983 115.061L193.733 151.867C194.399 152.252 194.399 153.214 193.733 153.599L129.983 190.405C129.316 190.79 128.483 190.309 128.483 189.539L128.483 115.927Z" fill="white"/>
<path d="M42.6634 328.545H33.6506C33.5866 327.8 33.4162 327.123 33.1392 326.516C32.8729 325.909 32.5 325.387 32.0206 324.95C31.5518 324.502 30.9819 324.162 30.3107 323.927C29.6396 323.682 28.8778 323.56 28.0256 323.56C26.5341 323.56 25.2717 323.922 24.2383 324.646C23.2156 325.371 22.4379 326.409 21.9052 327.762C21.3832 329.115 21.1222 330.74 21.1222 332.636C21.1222 334.639 21.3885 336.317 21.9212 337.67C22.4645 339.012 23.2475 340.025 24.2702 340.706C25.293 341.377 26.5234 341.713 27.9616 341.713C28.782 341.713 29.517 341.612 30.1669 341.409C30.8168 341.196 31.3814 340.893 31.8608 340.499C32.3402 340.104 32.729 339.63 33.0273 339.076C33.3363 338.512 33.544 337.878 33.6506 337.175L42.6634 337.239C42.5568 338.624 42.168 340.035 41.4968 341.473C40.8256 342.901 39.8722 344.222 38.6364 345.436C37.4112 346.64 35.8931 347.61 34.082 348.345C32.271 349.08 30.1669 349.447 27.7699 349.447C24.7656 349.447 22.0703 348.803 19.6839 347.514C17.3082 346.225 15.4279 344.328 14.043 341.825C12.6687 339.321 11.9815 336.259 11.9815 332.636C11.9815 328.993 12.6847 325.925 14.0909 323.432C15.4972 320.928 17.3935 319.037 19.7798 317.759C22.1662 316.47 24.8295 315.825 27.7699 315.825C29.8366 315.825 31.7383 316.108 33.4748 316.672C35.2113 317.237 36.7347 318.062 38.0451 319.149C39.3555 320.225 40.4102 321.551 41.2092 323.128C42.0082 324.705 42.4929 326.511 42.6634 328.545ZM55.5793 316.273V349H46.6943V316.273H55.5793ZM88.1068 316.273V349H80.692L68.8667 331.805H68.675V349H59.79V316.273H67.3327L78.9662 333.403H79.2219V316.273H88.1068ZM92.3096 349V316.273H115.896V323.432H101.195V329.057H114.682V336.216H101.195V341.841H115.832V349H92.3096ZM120.303 316.273H131.361L138.968 334.81H139.351L146.958 316.273H158.016V349H149.323V330.08H149.067L141.78 348.744H136.539L129.252 329.952H128.996V349H120.303V316.273ZM170.728 349H161.14L171.942 316.273H184.087L194.89 349H185.302L178.143 325.286H177.887L170.728 349ZM168.938 336.088H186.964V342.736H168.938V336.088ZM217.757 327.075C217.619 326.511 217.401 326.015 217.102 325.589C216.804 325.152 216.431 324.785 215.984 324.487C215.547 324.178 215.036 323.949 214.45 323.799C213.874 323.64 213.24 323.56 212.548 323.56C211.056 323.56 209.783 323.917 208.729 324.63C207.685 325.344 206.886 326.372 206.332 327.714C205.788 329.057 205.517 330.676 205.517 332.572C205.517 334.49 205.778 336.131 206.3 337.494C206.822 338.858 207.599 339.902 208.633 340.626C209.666 341.351 210.95 341.713 212.484 341.713C213.837 341.713 214.961 341.516 215.856 341.122C216.761 340.728 217.438 340.168 217.885 339.444C218.333 338.719 218.556 337.867 218.556 336.887L220.091 337.047H212.612V330.719H227.122V335.257C227.122 338.24 226.488 340.792 225.22 342.912C223.963 345.021 222.227 346.64 220.011 347.77C217.805 348.888 215.275 349.447 212.42 349.447C209.235 349.447 206.438 348.771 204.031 347.418C201.623 346.065 199.743 344.137 198.39 341.633C197.047 339.13 196.376 336.152 196.376 332.7C196.376 329.994 196.786 327.597 197.607 325.509C198.438 323.421 199.588 321.658 201.058 320.22C202.528 318.771 204.228 317.679 206.156 316.944C208.084 316.198 210.151 315.825 212.356 315.825C214.295 315.825 216.096 316.102 217.757 316.656C219.43 317.2 220.906 317.977 222.184 318.989C223.473 319.991 224.512 321.179 225.3 322.553C226.088 323.927 226.568 325.435 226.738 327.075H217.757ZM259.581 316.273V349H252.167L240.341 331.805H240.15V349H231.265V316.273H238.807L250.441 333.403H250.696V316.273H259.581ZM262.442 316.273H272.35L278.742 329.568H278.997L285.389 316.273H295.297L283.28 338.709V349H274.459V338.709L262.442 316.273Z" fill="white"/>
</svg>
